<svg width="41" height="41" viewBox="0 0 41 41" fill="none" xmlns="http://www.w3.org/2000/svg">
<path d="M15.5 37.1673H25.5C33.8333 37.1673 37.1667 33.834 37.1667 25.5007V15.5007C37.1667 7.16732 33.8333 3.83398 25.5 3.83398H15.5C7.16667 3.83398 3.83333 7.16732 3.83333 15.5007V25.5007C3.83333 33.834 7.16667 37.1673 15.5 37.1673Z" stroke="#91B5FE" stroke-width="2.5" stroke-linecap="round" stroke-linejoin="round"/>
<path d="M26.3337 31.3327C28.167 31.3327 29.667 29.8327 29.667 27.9993V12.9993C29.667 11.166 28.167 9.66602 26.3337 9.66602C24.5003 9.66602 23.0003 11.166 23.0003 12.9993V27.9993C23.0003 29.8327 24.4837 31.3327 26.3337 31.3327Z" stroke="#91B5FE" stroke-width="2.5" stroke-linecap="round" stroke-linejoin="round"/>
<path d="M14.6667 31.334C16.5 31.334 18 29.834 18 28.0007V22.1673C18 20.334 16.5 18.834 14.6667 18.834C12.8333 18.834 11.3333 20.334 11.3333 22.1673V28.0007C11.3333 29.834 12.8167 31.334 14.6667 31.334Z" stroke="#91B5FE" stroke-width="2.5" stroke-linecap="round" stroke-linejoin="round"/>
</svg>
